<?xml version="1.0" standalone="no"?>
<!DOCTYPE svg PUBLIC "-//W3C//DTD SVG 20010904//EN"
 "http://www.w3.org/TR/2001/REC-SVG-20010904/DTD/svg10.dtd">
<svg version="1.0" xmlns="http://www.w3.org/2000/svg"
 width="208.000000pt" height="208.000000pt" viewBox="0 0 208.000000 208.000000"
 preserveAspectRatio="xMidYMid meet">
<metadata>
Created by potrace 1.14, written by Peter Selinger 2001-2017
</metadata>
<g transform="translate(0.000000,208.000000) scale(0.100000,-0.100000)"
fill="#000000" stroke="none">
<path d="M1295 1990 c-10 -11 -21 -17 -25 -15 -4 3 -10 -1 -13 -8 -3 -7 -23
-22 -46 -32 -22 -11 -41 -23 -41 -27 0 -5 -4 -8 -10 -8 -18 0 -108 -70 -139
-108 -17 -20 -30 -31 -31 -24 0 6 6 12 13 12 9 0 9 2 0 8 -9 6 -10 17 -4 39 7
25 6 35 -8 47 -10 9 -25 16 -34 16 -9 0 -17 5 -17 11 0 5 -4 7 -10 4 -11 -7
-41 7 -63 29 -7 8 -28 17 -45 19 -30 5 -38 -2 -48 -45 -1 -5 -3 -9 -4 -10 -1
-2 -4 -16 -6 -33 -10 -70 -10 -95 -1 -95 5 0 7 -9 4 -20 -3 -11 -1 -20 5 -20
6 0 8 -7 4 -15 -3 -8 -1 -15 4 -15 5 0 5 -12 0 -29 -4 -16 -6 -32 -2 -35 3 -3
0 -6 -7 -6 -7 0 -10 -3 -7 -8 2 -4 -2 -16 -10 -27 -8 -10 -14 -15 -14 -10 0 5
-7 -1 -16 -13 -8 -12 -21 -22 -27 -21 -7 1 -19 -1 -27 -4 -8 -4 -26 -9 -40
-11 -14 -3 -27 -5 -30 -6 -3 -2 -8 -2 -12 -1 -5 0 -8 -3 -8 -8 0 -4 -11 -7
-25 -6 -14 2 -25 -1 -25 -6 0 -5 -3 -9 -7 -8 -16 2 -53 -14 -53 -23 0 -5 8
-21 18 -36 l17 -27 -25 16 c-14 9 -35 15 -48 14 -12 -1 -22 2 -22 6 0 5 -7 6
-15 3 -8 -4 -15 -2 -15 2 0 5 -18 10 -40 11 -22 2 -50 8 -61 14 -17 9 -20 8
-13 -3 6 -10 5 -11 -7 -2 -8 6 -42 11 -76 10 -35 -1 -65 4 -67 9 -3 6 -5 5 -5
-1 -1 -8 -12 -9 -36 -4 -19 4 -35 5 -35 1 0 -3 -5 1 -10 9 -9 13 -10 13 -10 0
0 -9 7 -26 16 -38 19 -28 20 -118 1 -148 -3 -6 -3 -14 0 -18 10 -10 11 -46 1
-46 -5 0 -6 -6 -1 -12 9 -16 14 -36 16 -70 1 -14 5 -24 9 -21 5 2 8 -5 8 -16
0 -11 7 -27 16 -35 8 -9 12 -16 8 -16 -3 0 -1 -7 6 -15 7 -8 9 -15 4 -15 -4 0
2 -9 13 -20 12 -10 24 -29 28 -40 4 -11 11 -18 16 -15 5 4 9 1 9 -5 0 -7 13
-25 30 -40 l30 -28 -25 -36 c-14 -20 -25 -41 -25 -46 0 -4 -5 -10 -12 -12 -6
-2 -13 -13 -15 -24 -20 -101 -27 -232 -13 -248 8 -10 8 -16 0 -21 -6 -4 -9
-14 -6 -23 9 -30 18 -77 18 -94 -1 -10 3 -20 9 -23 5 -4 9 -19 9 -34 0 -15 3
-31 6 -34 4 -4 8 -20 9 -37 2 -17 5 -33 8 -36 3 -3 24 13 48 36 27 26 45 36
50 29 4 -7 9 -7 13 -1 4 7 111 9 111 2 0 -1 17 -3 39 -5 21 -2 41 -7 44 -9 5
-6 42 32 42 44 0 4 6 7 14 7 15 0 17 -49 3 -63 -4 -4 -2 -13 4 -21 6 -7 9 -13
5 -13 -9 0 26 -84 38 -92 6 -4 7 -8 2 -8 -5 0 11 -20 36 -45 43 -42 68 -52
117 -46 8 2 10 -3 6 -11 -3 -7 1 -4 9 6 9 11 16 17 16 13 0 -3 14 -1 30 4 17
6 30 15 30 20 0 5 7 9 15 9 8 0 15 5 15 11 0 5 4 8 9 5 5 -3 11 1 15 9 3 8 12
15 20 15 8 0 16 3 18 8 9 21 148 69 148 51 0 -5 5 -9 11 -9 6 0 24 -13 39 -30
15 -16 25 -30 22 -30 -4 0 2 -6 13 -14 11 -7 23 -13 26 -12 3 0 13 -4 21 -11
8 -7 31 -14 52 -17 32 -4 35 -2 25 10 -7 8 -7 14 -1 14 5 0 10 12 11 28 1 52
4 67 14 80 5 6 6 12 3 12 -4 0 -1 6 6 13 13 15 58 11 58 -5 0 -5 4 -7 9 -3 5
3 12 1 16 -5 4 -6 11 -7 17 -4 6 4 14 1 18 -6 4 -6 32 -12 64 -13 31 -1 56 -6
56 -10 0 -5 4 -5 10 -2 5 3 10 0 10 -7 0 -10 2 -10 9 1 6 9 11 10 15 2 4 -6
12 -9 17 -6 5 4 9 2 9 -3 0 -6 7 -13 16 -16 13 -5 15 0 9 34 -6 34 -3 43 19
65 14 14 22 25 19 25 -3 0 7 10 23 22 54 43 63 52 58 60 -3 4 0 8 7 8 7 0 10
3 6 6 -3 3 2 20 12 38 21 36 18 151 -4 186 -3 6 -8 20 -10 32 -3 13 -14 36
-26 51 -11 16 -19 29 -17 30 1 1 13 8 26 15 13 7 27 10 32 7 6 -4 10 -1 10 5
0 6 5 8 10 5 6 -3 10 -1 10 6 0 7 3 9 7 6 3 -4 15 0 25 10 10 9 18 13 18 8 0
-4 23 16 50 45 28 29 48 55 45 58 -3 3 0 11 6 18 6 8 7 14 0 18 -6 4 -4 19 5
41 8 19 14 38 13 42 -1 5 -1 10 1 13 1 3 3 18 5 34 2 16 13 39 25 51 l21 23
-32 -4 c-19 -2 -43 3 -57 12 -18 12 -23 12 -17 3 3 -8 1 -7 -7 2 -7 8 -21 18
-30 22 -10 3 -18 11 -18 17 0 5 -7 10 -15 10 -8 0 -15 3 -15 8 0 4 -21 20 -48
37 -26 16 -49 32 -52 35 -5 5 -22 9 -78 15 -18 2 -37 7 -42 10 -6 3 -10 1 -10
-6 0 -6 -8 -9 -20 -6 -11 3 -20 0 -20 -6 0 -8 -3 -8 -11 0 -9 9 -15 8 -26 -2
-7 -8 -21 -11 -30 -8 -10 4 -12 8 -6 10 7 3 9 11 6 19 -3 8 0 14 6 14 6 0 11
5 11 11 0 6 8 23 19 37 10 15 24 44 32 65 7 20 16 37 20 37 3 0 7 26 7 57 0
57 -13 103 -30 103 -4 0 -8 5 -8 11 0 13 -71 81 -78 74 -2 -2 -14 7 -27 20
-12 14 -25 22 -28 18 -4 -3 -7 1 -7 10 0 10 -4 17 -8 17 -13 0 -112 101 -107
109 2 5 -1 16 -8 25 -8 11 -12 40 -10 72 1 30 1 54 -1 54 -1 0 -11 -9 -21 -20z"/>
</g>
</svg>
